<svg width="24" height="24" viewBox="0 0 24 24" fill="none" xmlns="http://www.w3.org/2000/svg">
<g clip-path="url(#clip0_0_75)">
<path d="M15.909 12.123L24 17.238V6.79199L15.909 12.123Z" fill="#9092B0"/>
<path d="M0 6.79199V17.238L8.091 12.123L0 6.79199Z" fill="#9092B0"/>
<path d="M22.5 3.75H1.49998C0.751483 3.75 0.157483 4.308 0.0449829 5.0265L12 12.903L23.955 5.0265C23.8425 4.308 23.2485 3.75 22.5 3.75Z" fill="#9092B0"/>
<path d="M14.535 13.0288L12.4125 14.4268C12.2865 14.5093 12.144 14.5498 12 14.5498C11.856 14.5498 11.7135 14.5093 11.5875 14.4268L9.46501 13.0273L0.0480042 18.9838C0.163504 19.6963 0.754504 20.2498 1.5 20.2498H22.5C23.2455 20.2498 23.8365 19.6963 23.952 18.9838L14.535 13.0288Z" fill="#9092B0"/>
</g>
<defs>
<clipPath id="clip0_0_75">
<rect width="24" height="24" fill="white"/>
</clipPath>
</defs>
</svg>
