<svg width="102" height="102" viewBox="0 0 102 102" fill="none" xmlns="http://www.w3.org/2000/svg">
<rect width="102" height="102" rx="20" fill="#3ADAD9"/>
<g clip-path="url(#clip0_0_29)">
<path d="M50.6001 33.0867C49.7514 33.0867 49.0626 32.3979 49.0626 31.5492V27.5374C49.0626 26.6887 49.7514 25.9999 50.6001 25.9999C51.4488 25.9999 52.1376 26.6887 52.1376 27.5374V31.5492C52.1376 32.3979 51.4488 33.0867 50.6001 33.0867Z" fill="white"/>
<path d="M64.0706 38.6668C63.677 38.6668 63.2834 38.5171 62.9841 38.2158C62.3835 37.6151 62.3835 36.6414 62.9841 36.0407L65.8213 33.2035C66.422 32.6029 67.3957 32.6029 67.9964 33.2035C68.597 33.8042 68.597 34.7779 67.9964 35.3786L65.1592 38.2158C64.8578 38.5151 64.4642 38.6668 64.0706 38.6668Z" fill="white"/>
<path d="M73.6625 52.1374H69.6507C68.802 52.1374 68.1132 51.4486 68.1132 50.5999C68.1132 49.7512 68.802 49.0624 69.6507 49.0624H73.6625C74.5112 49.0624 75.2 49.7512 75.2 50.5999C75.2 51.4486 74.5112 52.1374 73.6625 52.1374Z" fill="white"/>
<path d="M66.9078 68.4451C66.5142 68.4451 66.1206 68.2955 65.8213 67.9941L62.9841 65.1569C62.3835 64.5563 62.3835 63.5825 62.9841 62.9819C63.5848 62.3812 64.5585 62.3812 65.1592 62.9819L67.9964 65.8191C68.597 66.4197 68.597 67.3935 67.9964 67.9941C67.695 68.2955 67.3014 68.4451 66.9078 68.4451Z" fill="white"/>
<path d="M34.2923 68.4451C33.8987 68.4451 33.5051 68.2955 33.2058 67.9941C32.6051 67.3935 32.6051 66.4197 33.2058 65.8191L36.043 62.9819C36.6436 62.3812 37.6174 62.3812 38.218 62.9819C38.8187 63.5825 38.8187 64.5563 38.218 65.1569L35.3808 67.9941C35.0795 68.2955 34.6859 68.4451 34.2923 68.4451Z" fill="white"/>
<path d="M31.5494 52.1374H27.5376C26.6889 52.1374 26.0001 51.4486 26.0001 50.5999C26.0001 49.7512 26.6889 49.0624 27.5376 49.0624H31.5494C32.3981 49.0624 33.0869 49.7512 33.0869 50.5999C33.0869 51.4486 32.3981 52.1374 31.5494 52.1374Z" fill="white"/>
<path d="M37.1295 38.6668C36.7359 38.6668 36.3423 38.5171 36.043 38.2158L33.2058 35.3786C32.6051 34.7779 32.6051 33.8042 33.2058 33.2035C33.8064 32.6029 34.7802 32.6029 35.3808 33.2035L38.218 36.0407C38.8187 36.6414 38.8187 37.6151 38.218 38.2158C37.9146 38.5151 37.5231 38.6668 37.1295 38.6668Z" fill="white"/>
<path d="M56.7501 69.0498V71.6123C56.7501 73.5803 55.1306 75.1998 53.1626 75.1998H48.0376C46.3156 75.1998 44.4501 73.8878 44.4501 71.0178V69.0498H56.7501Z" fill="white"/>
<path d="M59.6406 39.4479C56.2786 36.7214 51.8506 35.6554 47.5251 36.5779C42.0926 37.7054 37.6851 42.1334 36.5576 47.5659C35.4096 53.1419 37.5006 58.6769 41.9696 62.0594C43.1791 62.9614 44.0196 64.3554 44.3066 65.9749V65.9954C44.3476 65.9749 44.4091 65.9749 44.4501 65.9749H56.7501C56.7911 65.9749 56.8116 65.9749 56.8526 65.9954V65.9749C57.1396 64.4169 58.0621 62.9819 59.4766 61.8749C62.9411 59.1279 64.9501 55.0279 64.9501 50.5999C64.9501 46.2539 63.0231 42.1949 59.6406 39.4479ZM49.8313 50.0874H51.3688C53.7714 50.0874 55.7251 52.041 55.7251 54.4436C55.7251 56.5818 54.1732 58.3571 52.1376 58.722V61.3624C52.1376 62.2111 51.4488 62.8999 50.6001 62.8999C49.7514 62.8999 49.0626 62.2111 49.0626 61.3624V58.7999H47.0126C46.1639 58.7999 45.4751 58.1111 45.4751 57.2624C45.4751 56.4137 46.1639 55.7249 47.0126 55.7249H51.3688C52.0761 55.7249 52.6501 55.1509 52.6501 54.4436C52.6501 53.7364 52.0761 53.1624 51.3688 53.1624H49.8313C47.4287 53.1624 45.4751 51.2087 45.4751 48.8061C45.4751 46.668 47.0269 44.8927 49.0626 44.5278V41.8874C49.0626 41.0387 49.7514 40.3499 50.6001 40.3499C51.4488 40.3499 52.1376 41.0387 52.1376 41.8874V44.4499H54.1876C55.0363 44.4499 55.7251 45.1387 55.7251 45.9874C55.7251 46.8361 55.0363 47.5249 54.1876 47.5249H49.8313C49.1241 47.5249 48.5501 48.0989 48.5501 48.8061C48.5501 49.5134 49.1241 50.0874 49.8313 50.0874Z" fill="white"/>
<path d="M44.3066 65.9749H44.4508C44.4096 65.9749 44.3478 65.9749 44.3066 65.9955V65.9749Z" fill="white"/>
<path d="M56.854 65.9749V65.9956C56.8124 65.9749 56.7916 65.9749 56.7501 65.9749H56.854Z" fill="white"/>
</g>
<defs>
<clipPath id="clip0_0_29">
<rect width="49.2" height="49.2" fill="white" transform="translate(26.0001 25.9999)"/>
</clipPath>
</defs>
</svg>
