<svg width="20" height="21" viewBox="0 0 20 21" fill="none" xmlns="http://www.w3.org/2000/svg">
<path d="M17.2408 0.807017L1.81908 8.33266C1.16937 8.64969 0.761346 9.29578 0.75416 10.0187C0.747032 10.7416 1.1422 11.3956 1.78548 11.7254L6.86596 14.3305L11.4386 9.15346C11.649 8.91524 12.0127 8.89266 12.251 9.1031C12.4892 9.31351 12.5118 9.67725 12.3013 9.91551L7.72873 15.0925L10.9413 19.8123C11.3481 20.41 12.0459 20.7214 12.7624 20.6249C13.4803 20.5283 14.07 20.0426 14.304 19.3599L19.8672 3.12674C20.1205 2.38766 19.9141 1.60725 19.3285 1.09003C18.7429 0.572818 17.943 0.464317 17.2408 0.807017Z" fill="white"/>
</svg>
